<?xml version="1.0" encoding="utf-8"?>
<!-- Generator: Adobe Illustrator 23.0.5, SVG Export Plug-In . SVG Version: 6.00 Build 0)  -->
<svg version="1.1" id="Layer_1" xmlns="http://www.w3.org/2000/svg" xmlns:xlink="http://www.w3.org/1999/xlink" x="0px" y="0px"
	 viewBox="0 0 88.7 88.7" style="enable-background:new 0 0 88.7 88.7;" xml:space="preserve">
<style type="text/css">
	.st0{fill:#ED1C24;stroke:#FFFFFF;stroke-width:2;}
</style>
<title>noelHamIso</title>
<g>
	<path class="st0" d="M79.3,77.3c1.1-3.2,0.4-5.1-2.6-6.3c-3.1-0.9-4.5,0.2-6,3.2c-0.1,0.2-0.6,0.9-0.6,0.9c-1.4,2.2-3.4,3.7-5.9,3
		c-5.9-1.6-5.3-11.2-14.6-13.7l-1.9,8.4c5.9,1.6,5.5,11.2,14.6,13.7c7.8,2.1,13.6-1,17-9V77.3z"/>
	<path class="st0" d="M49.9,67.7v1.7c0,3.6-1.4,5.3-4.6,5.4c-3.2-0.2-4.6-1.8-4.5-5.5v-1.7l0.1-46V20c0-3.6,1.4-5.3,4.6-5.4
		c3.2,0.2,4.6,1.8,4.5,5.5v1.7L49.9,67.7z"/>
	<path class="st0" d="M20.3,54.1L19,54.2c-3,0.2-4.4-1.1-4.7-4.2c0-3.2,1.2-4.6,4.1-4.8l1.4-0.1l37.4-2.4l1.4-0.1
		c3-0.2,4.4,1.1,4.7,4.2c0.1,3.2-1.2,4.6-4.1,4.8l-1.4,0.1L20.3,54.1z"/>
	<path class="st0" d="M14.9,32l-2.1,0.1c-4.7,0.3-7-0.9-7.4-4.1c0-3.2,2.1-4.7,6.8-5l2.2-0.1L74,19l2.1-0.1c4.7-0.3,6.9,0.9,7.4,4.1
		c0,3.2-2.1,4.7-6.8,5l-2.2,0.1L14.9,32z"/>
	<path class="st0" d="M31.7,45.4l-1.5,0.1c-3.2,0.2-4.7-1.1-5.1-4.2c0-3.2,1.3-4.7,4.5-4.9l1.5-0.1l40.4-2.6l1.5-0.1
		c3.2-0.2,4.7,1.1,5.1,4.2c0,3.2-1.3,4.7-4.5,4.9l-1.5,0.1L31.7,45.4z"/>
	<path class="st0" d="M15.5,41.1l-2.1,0.1c-4.5,0.3-6.6-0.9-7-4.1c0-3.2,2-4.7,6.5-5L15,32l57.4-3.7l2.1-0.1c4.5-0.3,6.6,1,7,4.1
		c0,3.2-2,4.7-6.5,5l-2.1,0.1L15.5,41.1z"/>
	<path class="st0" d="M15.9,50.2l-1.5,0.1c-3.2,0.2-4.7-1.1-5.1-4.2c0-3.2,1.3-4.7,4.5-4.9l1.4-0.1l40.5-2.6l1.5-0.1
		c3.2-0.2,4.7,1.1,5.1,4.2c0,3.2-1.3,4.7-4.5,4.9l-1.5,0.1L15.9,50.2z"/>
	<path class="st0" d="M53.5,59.8l1.4,1.4c3,3.2,3.3,5.5,1.2,7.9c-2.5,2-4.8,1.5-7.8-1.6l-1.4-1.4L9.1,26.2l-1.4-1.4
		c-3-3.2-3.3-5.5-1.2-7.9c2.5-2,4.8-1.5,7.8,1.6l1.4,1.4L53.5,59.8z"/>
	<path class="st0" d="M60.2,53.6l1.4,1.5c3.1,3.3,3.6,5.7,1.4,8.1c-2.5,2-4.9,1.5-8-1.8l-1.4-1.5l-39.7-42l-1.4-1.6
		c-3.1-3.3-3.6-5.7-1.4-8.1c2.5-2,4.9-1.5,8,1.8l1.4,1.5L60.2,53.6z"/>
	<path class="st0" d="M65.8,46.3l1.3,1.4c2.9,3,3.2,5.3,1,7.7c-2.5,2-4.8,1.6-7.6-1.4l-1.3-1.4L22.9,14.3l-1.3-1.4
		c-2.9-3-3.2-5.3-1-7.7c2.5-2,4.8-1.6,7.6,1.4L29.5,8L65.8,46.3z"/>
	<path class="st0" d="M72.3,39.7l1.2,1.2c2.5,2.6,2.6,4.8,0.4,7.1c-2.5,2.1-4.6,1.8-7.1-0.8L65.7,46L34,12.6l-1.2-1.2
		c-2.5-2.6-2.6-4.8-0.4-7.1c2.5-2.1,4.6-1.8,7.1,0.8l1.2,1.2L72.3,39.7z"/>
	<path class="st0" d="M30.3,55.8l-1.1,1.6c-2.4,3.5-4.6,4.2-7.4,2.6c-2.5-2-2.5-4.3-0.1-7.8l1.1-1.6l30.4-44L54.3,5
		c2.4-3.5,4.6-4.2,7.4-2.6c2.5,2,2.5,4.3,0.1,7.8l-1.1,1.6L30.3,55.8z"/>
	<path class="st0" d="M37.8,61l-1.2,1.7c-2.5,3.7-4.8,4.5-7.5,2.9c-2.5-2-2.5-4.4,0-8.1l1.2-1.7L62.4,9.4l1.2-1.7
		c2.5-3.7,4.8-4.5,7.5-2.9c2.5,2,2.5,4.4,0,8.1l-1.2,1.7L37.8,61z"/>
	<path class="st0" d="M45.4,66.1l-1.2,1.7c-2.5,3.7-4.8,4.6-7.6,2.9c-2.5-2-2.5-4.4,0.1-8.1l1.2-1.7l32.3-46.7l1.2-1.7
		c2.5-3.7,4.8-4.6,7.6-2.9c2.5,2,2.5,4.4-0.1,8.1l-1.2,1.7L45.4,66.1z"/>
</g>
</svg>
